<?xml version="1.0" encoding="UTF-8" standalone="no"?>
<svg
   viewBox="0 0 48 48"
   version="1.1"
   id="svg40"
   sodipodi:docname="QDiskInfo_Good.svg"
   inkscape:version="1.4 (e7c3feb100, 2024-10-09)"
   xml:space="preserve"
   xmlns:inkscape="http://www.inkscape.org/namespaces/inkscape"
   xmlns:sodipodi="http://sodipodi.sourceforge.net/DTD/sodipodi-0.dtd"
   xmlns:xlink="http://www.w3.org/1999/xlink"
   xmlns="http://www.w3.org/2000/svg"
   xmlns:svg="http://www.w3.org/2000/svg"><defs
     id="defs40"><clipPath
       clipPathUnits="userSpaceOnUse"
       id="clipPath1"><path
         d="M 0,0 H 34 V 34 H 0 Z"
         id="path1" /></clipPath><clipPath
       clipPathUnits="userSpaceOnUse"
       id="clipPath2"><path
         d="M 0,0 H 34 V 34 H 0 Z"
         id="path2" /></clipPath><clipPath
       id="clipPath18"><path
         d="M 0,38 38,38 38,0 0,0 0,38 z"
         id="path20-3" /></clipPath></defs><sodipodi:namedview
     id="namedview40"
     pagecolor="#ffffff"
     bordercolor="#000000"
     borderopacity="0.25"
     inkscape:showpageshadow="2"
     inkscape:pageopacity="0.0"
     inkscape:pagecheckerboard="false"
     inkscape:deskcolor="#d1d1d1"
     showgrid="false"
     inkscape:zoom="11.166667"
     inkscape:cx="21.044775"
     inkscape:cy="17.776119"
     inkscape:window-width="1600"
     inkscape:window-height="1172"
     inkscape:window-x="0"
     inkscape:window-y="0"
     inkscape:window-maximized="1"
     inkscape:current-layer="g1" /><linearGradient
     id="a"
     x1="6"
     x2="6"
     y1="58"
     y2="6"
     gradientUnits="userSpaceOnUse"><stop
       stop-color="#98a7b0"
       offset="0"
       id="stop1" /><stop
       stop-color="#dde1e3"
       offset="1"
       id="stop2" /></linearGradient><linearGradient
     id="b"><stop
       stop-color="#292c2f"
       offset="0"
       id="stop3" /><stop
       stop-opacity="0"
       offset="1"
       id="stop4" /></linearGradient><linearGradient
     id="c"
     x1=".593691"
     x2="76.196591"
     y1="36.119742"
     y2="36.119742"
     gradientTransform="matrix(.99166665 0 0 1 .029538 -.046272)"
     gradientUnits="userSpaceOnUse"
     xlink:href="#b" /><linearGradient
     id="d"
     x1="388.423"
     x2="388.423"
     y1="557.79797"
     y2="505.798"
     gradientTransform="matrix(.83152667 0 0 .76922858 -321.64966 -385.07572)"
     gradientUnits="userSpaceOnUse"><stop
       stop-color="#7f8c8d"
       offset="0"
       id="stop5" /><stop
       stop-color="#afb0b3"
       offset="1"
       id="stop6" /></linearGradient><linearGradient
     id="e"
     x1="-421.44699"
     x2="-410.44699"
     y1="-504.20401"
     y2="-493.20401"
     gradientTransform="matrix(1.4166667 0 0 1.4285715 1.333333 1.142857)"
     gradientUnits="userSpaceOnUse"
     xlink:href="#b" /><linearGradient
     id="f"
     x1="1.333"
     x2="1.333"
     y1="48.714001"
     y2="9.714"
     gradientTransform="matrix(.73913167 0 0 .76922858 .347333 -.614286)"
     gradientUnits="userSpaceOnUse"><stop
       stop-color="#eef1f2"
       offset="0"
       id="stop7" /><stop
       stop-color="#f9fafb"
       offset="1"
       id="stop8" /></linearGradient><linearGradient
     id="g"
     x1="6"
     x2="6"
     y1="58"
     y2="6"
     gradientTransform="matrix(.41954831 0 0 .42307393 10.574493 8.318726)"
     gradientUnits="userSpaceOnUse"
     xlink:href="#a" /><linearGradient
     id="h"
     x1="32"
     x2="32"
     y1="58"
     y2="32"
     gradientTransform="matrix(-.41954831 0 0 .42307393 37.425586 8.318726)"
     gradientUnits="userSpaceOnUse"><stop
       stop-color="#8e44ad"
       offset="0"
       id="stop9" /><stop
       stop-color="#af7ac4"
       offset="1"
       id="stop10" /></linearGradient><linearGradient
     id="i"
     x1="32"
     x2="32"
     y1="58"
     y2="32"
     gradientTransform="matrix(.41954831 0 0 .42307393 10.574493 8.318726)"
     gradientUnits="userSpaceOnUse"><stop
       stop-color="#fdad23"
       offset="0"
       id="stop11" /><stop
       stop-color="#fdc96f"
       offset="1"
       id="stop12" /></linearGradient><linearGradient
     id="j"
     x1="32"
     x2="32"
     y1="32"
     y2="6"
     gradientTransform="matrix(.41954831 0 0 .42307393 10.574493 8.318726)"
     gradientUnits="userSpaceOnUse"><stop
       stop-color="#27ad60"
       offset="0"
       id="stop13" /><stop
       stop-color="#58d68d"
       offset="1"
       id="stop14" /></linearGradient><linearGradient
     id="k"
     x1="32"
     x2="32"
     y1="32"
     y2="6"
     gradientTransform="matrix(.41954831 0 0 .42307393 10.574493 8.318726)"
     gradientUnits="userSpaceOnUse"><stop
       stop-color="#1190d9"
       offset="0"
       id="stop15" /><stop
       stop-color="#73c4ef"
       offset="1"
       id="stop16" /></linearGradient><linearGradient
     id="l"
     x1="32"
     x2="32"
     y1="41"
     y2="23"
     gradientTransform="matrix(.41954831 0 0 .42307393 10.574493 8.318726)"
     gradientUnits="userSpaceOnUse"><stop
       stop-color="#cecece"
       offset="0"
       id="stop17" /><stop
       stop-color="#ececec"
       offset="1"
       id="stop18" /></linearGradient><linearGradient
     id="m"
     x1="32"
     x2="32"
     y1="36"
     y2="28"
     gradientTransform="matrix(.41954831 0 0 .42307393 10.574493 8.318726)"
     gradientUnits="userSpaceOnUse"><stop
       stop-color="#5c7274"
       offset="0"
       id="stop19" /><stop
       stop-color="#a4a4a4"
       offset="1"
       id="stop20" /></linearGradient><linearGradient
     id="n"
     x1="32"
     x2="32"
     y1="35"
     y2="29"
     gradientTransform="matrix(.41954831 0 0 .42307393 10.574493 8.318726)"
     gradientUnits="userSpaceOnUse"
     xlink:href="#a" /><g
     stroke-width="1"
     id="g28"><path
       d="m6.9999999 3.9999995h34v40h-34z"
       fill="url(#d)"
       id="path20" /><path
       d="m11.25 39.714286h25.499999v4.285714h-25.499999z"
       fill="#292c2e"
       id="path21" /><path
       d="m14.083333 41.142857h12.75v1.428572h-12.75zm14.166667 0h5.666667v1.428572h-5.666667z"
       fill="#f6b44d"
       id="path22" /><path
       d="m35.333332 39.714286h5.666668v4.285714h-5.666668zm-28.333332 0h5.6666661v4.285714h-5.6666661z"
       fill="#292c2f"
       opacity=".2"
       id="path23" /><path
       d="m6.9999999 39.714286h5.6666661v4.285714h-1.416666zm28.333332 0h5.666668v4.285714h-5.666668z"
       fill="#292c2f"
       opacity=".2"
       id="path24" /><path
       d="m36.09125 8.9499995 4.90875 4.9471435v30.102857h-19.833334l-11.333333-11.428571z"
       fill="url(#e)"
       opacity=".2"
       id="path25" /><path
       d="m16.916665 6.8571424a7.0833333 7.1428572 0 0 0 -7.0833318 7.1428576v6.811429a4.25 4.2857144 0 0 1 1.4109998 3.024284 2.8333333 2.8571429 0 0 1 .0058.164288 2.8333333 2.8571429 0 0 1 -.01417.285713 4.25 4.2857144 0 0 1 0 .0072 4.25 4.2857144 0 0 1 -1.4025004 2.892858v5.385714l4.2499504 4.285714h19.833334l4.25-4.285714v-5.382858a4.25 4.2857144 0 0 1 -1.411-3.024286 2.8333333 2.8571429 0 0 1 -.0058-.164284 2.8333333 2.8571429 0 0 1 .01417-.292858 4.25 4.2857144 0 0 1 1.402501-2.892857v-6.814343a7.0833333 7.1428572 0 0 0 -7.083285-7.1428576z"
       fill="url(#f)"
       id="path26" /><path
       d="m6.9999999 42.571429h4.2500001v1.428571h-4.2500001zm29.749999 0h4.250001v1.428571h-4.250001z"
       fill="#292c2f"
       opacity=".2"
       id="path27" /><path
       d="m24.00004 18.049429a3.7759347 3.8076653 0 0 0 -3.775934 3.807664 3.7759347 3.8076653 0 0 0 3.775934 3.807665 3.7759347 3.8076653 0 0 0 3.775934-3.807665 3.7759347 3.8076653 0 0 0 -3.775934-3.807664zm0 2.538442c.697289 0 1.258644.566073 1.258644 1.269222s-.561355 1.269223-1.258644 1.269223c-.69729 0-1.258646-.566074-1.258646-1.269223s.561356-1.269222 1.258646-1.269222z"
       fill="url(#g)"
       id="path28" /></g><g
     id="g1"
     inkscape:groupmode="layer"
     inkscape:label="1"
     transform="translate(1,2)"><g
       id="g4"
       transform="matrix(0.32338308,0,0,0.32338308,32.447762,-2)"><path
         d="m 33.75,30 c 0,2.07 -1.68,3.75 -3.75,3.75 H 3.75 C 1.68,33.75 0,32.07 0,30 V 3.75 C 0,1.68 1.68,0 3.75,0 H 30 c 2.07,0 3.75,1.68 3.75,3.75 z"
         style="fill:#77b255;fill-opacity:1;fill-rule:nonzero;stroke:none"
         transform="scale(1.3333333)"
         clip-path="url(#clipPath1)"
         id="path3" /><path
         d="M 12.656,27.188 C 12.055,27.188 11.457,26.957 11,26.5 L 4.906,20.406 c -0.918,-0.914 -0.918,-2.398 0,-3.312 0.914,-0.918 2.399,-0.918 3.313,0 l 4.437,4.437 12.875,-12.875 c 0.914,-0.918 2.399,-0.918 3.313,0 0.918,0.914 0.918,2.399 0,3.313 L 14.312,26.5 c -0.457,0.457 -1.054,0.688 -1.656,0.688"
         style="fill:#ffffff;fill-opacity:1;fill-rule:nonzero;stroke:none"
         transform="scale(1.3333333)"
         clip-path="url(#clipPath2)"
         id="path4" /></g></g><style
     type="text/css"
     id="style1">
	.st0{fill:#F96464;}
</style></svg>
